<svg width="1440" height="460" viewBox="0 0 1440 460" fill="none" xmlns="http://www.w3.org/2000/svg">
<path d="M470.128 64.9166C242.3 -89.9533 82.8107 66.2641 2.92175 180.707V384.28L1706 420.374L1598.01 218.534C1498.87 202.557 1289.04 155.874 1242.84 96.9684C1185.09 23.3358 1045.78 140.115 855.038 96.9684C637.606 47.7829 736.252 245.819 470.128 64.9166Z" fill="#F35229"/>
<path d="M726.588 201.993C608.998 147.522 416.72 237.628 335.279 289.489V497.375H1605.22V146.733C1567.52 165.153 1459.49 180.152 1329.01 92.7876C1198.53 5.42309 1065.28 80.946 1014.97 129.628C967.84 176.446 844.178 256.465 726.588 201.993Z" fill="#FFBA08"/>
<path d="M323.44 160.717C67.0255 -84.4364 -151.466 226.168 -181.015 282.571L238.257 542.207L1155.92 560.976C1199.43 513.139 1348.41 521.717 1417.53 480.369C1779.63 263.758 1592.52 5.65527 1071.32 169.424C1017.72 186.264 904.223 268.904 871.209 299.608C827.703 346.868 756.4 390.61 689.87 397.54C606.709 406.203 498.426 348.408 323.44 160.717Z" fill="#F48C06"/>
<path d="M456.456 398.271C218.447 278.714 -676.68 198.259 -790 259.441L-2.87164 763.908L1252.84 790.75C1356.73 734.889 1548.32 565.927 1483.59 336.969C1418.87 108.011 1173.14 225.851 1058.37 313.391C956.903 391.5 694.465 517.829 456.456 398.271Z" fill="#E85D04"/>
</svg>
